<?xml version="1.0" encoding="utf-8"?>
<!-- Svg Vector Icons : http://www.onlinewebfonts.com/icon -->
<!DOCTYPE svg PUBLIC "-//W3C//DTD SVG 1.1//EN" "http://www.w3.org/Graphics/SVG/1.1/DTD/svg11.dtd">
<svg version="1.1" xmlns="http://www.w3.org/2000/svg" xmlns:xlink="http://www.w3.org/1999/xlink" x="0px" y="0px" viewBox="0 0 1000 1000" enable-background="new 0 0 1000 1000" xml:space="preserve">
<metadata> Svg Vector Icons : http://www.onlinewebfonts.com/icon </metadata>
<g><path d="M500,990C229.8,990,10,770.2,10,500C10,229.8,229.8,10,500,10c270.2,0,490,219.8,490,490C990,770.2,770.2,990,500,990z M500,91.7C274.8,91.7,91.7,274.8,91.7,500c0,225.2,183.2,408.3,408.3,408.3c225.2,0,408.3-183.2,408.3-408.3C908.3,274.8,725.2,91.7,500,91.7z M694.2,694.2c-6.7,6.7-15.4,10-24.1,10s-17.5-3.3-24.2-10L499.3,547.6L352.7,694.2c-6.7,6.7-15.4,10-24.2,10c-8.7,0-17.5-3.3-24.1-10c-13.4-13.4-13.4-35,0-48.3L451,499.3L304.4,352.7c-13.4-13.4-13.4-35,0-48.3c13.4-13.4,35-13.4,48.3,0L499.3,451l146.6-146.6c13.4-13.4,35-13.4,48.3,0c13.4,13.4,13.4,35,0,48.3L547.6,499.3l146.6,146.6C707.5,659.2,707.5,680.8,694.2,694.2z"/></g>
</svg>